<svg width="174" height="23" viewBox="0 0 174 23" fill="none" xmlns="http://www.w3.org/2000/svg">
<path d="M1.12525 22.6597C0.798251 22.6597 0.528962 22.5533 0.317377 22.3406C0.105792 22.1278 0 21.857 0 21.5282V1.13154C0 0.802712 0.105792 0.531918 0.317377 0.319151C0.528962 0.106384 0.798251 0 1.12525 0C1.45224 0 1.72153 0.106384 1.93311 0.319151C2.1447 0.531918 2.25049 0.802712 2.25049 1.13154V10.1838H16.3305V1.13154C16.3305 0.802712 16.4363 0.531918 16.6479 0.319151C16.8594 0.106384 17.1287 0 17.4557 0C17.7827 0 18.052 0.106384 18.2636 0.319151C18.4752 0.531918 18.581 0.802712 18.581 1.13154V21.5282C18.581 21.857 18.4752 22.1278 18.2636 22.3406C18.052 22.5533 17.7827 22.6597 17.4557 22.6597C17.1287 22.6597 16.8594 22.5533 16.6479 22.3406C16.4363 22.1278 16.3305 21.857 16.3305 21.5282V12.2148H2.25049V21.5282C2.25049 21.857 2.1447 22.1278 1.93311 22.3406C1.72153 22.5533 1.45224 22.6597 1.12525 22.6597Z" fill="black"/>
<path d="M47.2408 11.3299C47.2408 14.6741 45.7755 17.6746 43.4642 19.7508V15.2047C44.0637 14.0415 44.4083 12.7263 44.4083 11.3299C44.4083 6.64497 40.5968 2.83247 35.9109 2.83247C31.2251 2.83247 27.4135 6.64497 27.4135 11.3299C27.4135 13.8375 28.5125 16.0884 30.246 17.6453V21.1264C26.865 19.1635 24.5811 15.5125 24.5811 11.3299C24.5811 5.08239 29.6634 0 35.9109 0C42.1584 0 47.2408 5.08239 47.2408 11.3299ZM40.2616 7.76945C39.375 8.57199 37.9144 10.6274 37.8011 13.5307C37.7643 15.1405 38.2439 16.9306 39.6875 18.6877V22.6597H41.5758V8.24909C41.5721 7.65521 40.7667 7.30021 40.2616 7.76945ZM36.8551 12.7461V7.55324H34.9668V12.7461C34.9668 13.0067 34.7553 13.2182 34.4947 13.2182H34.0226V7.55324H32.1343V13.2182H31.6622C31.4016 13.2182 31.1901 13.0067 31.1901 12.7461V7.55324H29.3018V12.7461C29.3018 14.0471 30.3612 15.1065 31.6622 15.1065H32.1343V22.6597H34.0226V15.1065H34.4947C35.7957 15.1065 36.8551 14.0471 36.8551 12.7461ZM35.9109 22.6597C36.5558 22.6597 37.1836 22.5927 37.7992 22.4888V19.6082C37.1912 19.747 36.5605 19.8273 35.9109 19.8273V22.6597Z" fill="url(#paint0_linear_81_4515)"/>
<path d="M54.3723 22.6597C54.0628 22.6597 53.792 22.5533 53.5599 22.3406C53.3471 22.1085 53.2407 21.8377 53.2407 21.5282V1.13154C53.2407 0.802712 53.3471 0.531918 53.5599 0.319151C53.792 0.106384 54.0628 0 54.3723 0C54.8365 0 55.175 0.193425 55.3877 0.580274L65.1654 20.0195H64.1789L73.7824 0.580274C74.0146 0.193425 74.3531 0 74.7979 0C75.1074 0 75.3685 0.106384 75.5813 0.319151C75.7941 0.531918 75.9005 0.802712 75.9005 1.13154V21.5282C75.9005 21.8377 75.7941 22.1085 75.5813 22.3406C75.3685 22.5533 75.1074 22.6597 74.7979 22.6597C74.4691 22.6597 74.1886 22.5533 73.9565 22.3406C73.7438 22.1085 73.6374 21.8377 73.6374 21.5282V4.06192L74.1306 4.09094L65.5716 21.5862C65.3588 21.9537 65.03 22.1375 64.5851 22.1375C64.1015 22.1375 63.7534 21.9054 63.5406 21.4412L54.9235 4.20699L55.5038 4.06192V21.5282C55.5038 21.8377 55.3877 22.1085 55.1556 22.3406C54.9429 22.5533 54.6817 22.6597 54.3723 22.6597Z" fill="black"/>
<path d="M83.0313 22.6597C82.7027 22.6597 82.432 22.5533 82.2194 22.3406C82.0067 22.1278 81.9004 21.857 81.9004 21.5282V1.13154C81.9004 0.802712 82.0067 0.531918 82.2194 0.319151C82.432 0.106384 82.7027 0 83.0313 0H96.6313C96.9406 0 97.2016 0.106384 97.4142 0.319151C97.6462 0.512575 97.7622 0.773699 97.7622 1.10252C97.7622 1.39266 97.6462 1.64411 97.4142 1.85688C97.2016 2.06965 96.9406 2.17603 96.6313 2.17603H84.1622V10.1838H93.2385C93.5672 10.1838 93.8378 10.2902 94.0505 10.503C94.2631 10.7157 94.3695 10.9769 94.3695 11.2863C94.3695 11.5958 94.2631 11.8569 94.0505 12.0697C93.8378 12.2825 93.5672 12.3889 93.2385 12.3889H84.1622V20.4837H96.6313C96.9406 20.4837 97.2016 20.5901 97.4142 20.8029C97.6462 21.0156 97.7622 21.2671 97.7622 21.5572C97.7622 21.886 97.6462 22.1568 97.4142 22.3696C97.2016 22.563 96.9406 22.6597 96.6313 22.6597H83.0313Z" fill="black"/>
<path d="M105.055 22.6597C104.683 22.6597 104.369 22.563 104.115 22.3696C103.88 22.1568 103.762 21.8764 103.762 21.5282V1.13154C103.762 0.802712 103.87 0.531918 104.085 0.319151C104.301 0.106384 104.575 0 104.908 0H112.046C113.221 0 114.278 0.251452 115.218 0.754356C116.178 1.23792 116.931 1.90524 117.48 2.7563C118.048 3.60737 118.332 4.59384 118.332 5.71571C118.332 6.7602 118.048 7.68864 117.48 8.50103C116.912 9.31341 116.168 9.93237 115.247 10.3579C116.559 10.7061 117.617 11.3637 118.42 12.3308C119.223 13.2786 119.624 14.4875 119.624 15.9576C119.624 17.2728 119.32 18.4334 118.713 19.4392C118.106 20.445 117.264 21.2381 116.187 21.8183C115.13 22.3793 113.916 22.6597 112.545 22.6597H105.055ZM106.053 20.4837H112.545C113.485 20.4837 114.317 20.2999 115.042 19.9324C115.766 19.5649 116.334 19.0427 116.745 18.3657C117.157 17.6887 117.362 16.886 117.362 15.9576C117.362 15.0871 117.157 14.3328 116.745 13.6945C116.334 13.0368 115.766 12.5339 115.042 12.1858C114.317 11.8183 113.485 11.6345 112.545 11.6345H106.053V20.4837ZM106.053 9.45848H112.046C113.221 9.45848 114.19 9.12966 114.954 8.47201C115.717 7.81437 116.099 6.8956 116.099 5.71571C116.099 4.55516 115.717 3.67507 114.954 3.07546C114.19 2.47584 113.221 2.17603 112.046 2.17603H106.053V9.45848Z" fill="url(#paint1_linear_81_4515)"/>
<path d="M126.757 22.6597C126.428 22.6597 126.157 22.5533 125.944 22.3406C125.731 22.1278 125.624 21.857 125.624 21.5282V1.13154C125.624 0.802712 125.731 0.531918 125.944 0.319151C126.157 0.106384 126.428 0 126.757 0C127.086 0 127.357 0.106384 127.57 0.319151C127.783 0.531918 127.89 0.802712 127.89 1.13154V21.5282C127.89 21.857 127.783 22.1278 127.57 22.3406C127.357 22.5533 127.086 22.6597 126.757 22.6597Z" fill="url(#paint2_linear_81_4515)"/>
<path d="M142.713 22.6597C142.412 22.6597 142.148 22.5533 141.921 22.3406C141.714 22.1085 141.61 21.8377 141.61 21.5282V0H143.816V21.5282C143.816 21.8377 143.712 22.1085 143.505 22.3406C143.298 22.5533 143.034 22.6597 142.713 22.6597ZM134.908 2.05997C134.607 2.05997 134.361 1.96326 134.173 1.76984C133.984 1.57641 133.89 1.33463 133.89 1.04449C133.89 0.735014 133.984 0.483562 134.173 0.290137C134.361 0.0967125 134.607 0 134.908 0H150.547C150.848 0 151.093 0.0967125 151.282 0.290137C151.47 0.483562 151.565 0.735014 151.565 1.04449C151.565 1.33463 151.47 1.57641 151.282 1.76984C151.093 1.96326 150.848 2.05997 150.547 2.05997H134.908Z" fill="url(#paint3_linear_81_4515)"/>
<path d="M158.696 22.6597C158.367 22.6597 158.096 22.5533 157.884 22.3406C157.671 22.1278 157.565 21.857 157.565 21.5282V1.13154C157.565 0.802712 157.671 0.531918 157.884 0.319151C158.096 0.106384 158.367 0 158.696 0H172.296C172.605 0 172.866 0.106384 173.079 0.319151C173.311 0.512575 173.427 0.773699 173.427 1.10252C173.427 1.39266 173.311 1.64411 173.079 1.85688C172.866 2.06965 172.605 2.17603 172.296 2.17603H159.827V10.1838H168.903C169.231 10.1838 169.502 10.2902 169.715 10.503C169.927 10.7157 170.034 10.9769 170.034 11.2863C170.034 11.5958 169.927 11.8569 169.715 12.0697C169.502 12.2825 169.231 12.3889 168.903 12.3889H159.827V20.4837H172.296C172.605 20.4837 172.866 20.5901 173.079 20.8029C173.311 21.0156 173.427 21.2671 173.427 21.5572C173.427 21.886 173.311 22.1568 173.079 22.3696C172.866 22.563 172.605 22.6597 172.296 22.6597H158.696Z" fill="url(#paint4_linear_81_4515)"/>
<defs>
<linearGradient id="paint0_linear_81_4515" x1="35.9109" y1="0" x2="35.9109" y2="22.6597" gradientUnits="userSpaceOnUse">
<stop stop-color="#FF8A00"/>
<stop offset="1" stop-color="#FF4B2B"/>
</linearGradient>
<linearGradient id="paint1_linear_81_4515" x1="111.067" y1="-2.91817" x2="111.067" y2="29.4041" gradientUnits="userSpaceOnUse">
<stop stop-color="#FF8A00"/>
<stop offset="1" stop-color="#FF4B2B"/>
</linearGradient>
<linearGradient id="paint2_linear_81_4515" x1="126.796" y1="-2.91817" x2="126.796" y2="29.4041" gradientUnits="userSpaceOnUse">
<stop stop-color="#FF8A00"/>
<stop offset="1" stop-color="#FF4B2B"/>
</linearGradient>
<linearGradient id="paint3_linear_81_4515" x1="142.768" y1="-2.91817" x2="142.768" y2="29.4041" gradientUnits="userSpaceOnUse">
<stop stop-color="#FF8A00"/>
<stop offset="1" stop-color="#FF4B2B"/>
</linearGradient>
<linearGradient id="paint4_linear_81_4515" x1="164.712" y1="-2.91817" x2="164.712" y2="29.4041" gradientUnits="userSpaceOnUse">
<stop stop-color="#FF8A00"/>
<stop offset="1" stop-color="#FF4B2B"/>
</linearGradient>
</defs>
</svg>
